<svg version="1.0" xmlns="http://www.w3.org/2000/svg" width="300.000000pt" height="300.000000pt"
  viewBox="0 0 300.000000 300.000000" preserveAspectRatio="xMidYMid meet">
  <g transform="translate(0.000000,300.000000) scale(0.100000,-0.100000)" fill="#000000"
    stroke="none">
    <path
      d="M945 2427 c-2 -6 -18 -91 -36 -189 l-32 -176 22 -54 c13 -29 25 -60 28 -68 3 -8 -11 1 -31 20 l-38 35 7 -71 7 -71 -82 -69 -82 -69 38 -3 c22 -1 54 -5 73 -8 l33 -5 -22 -24 c-13 -14 -41 -28 -62 -32 l-39 -8 -59 -142 -59 -143 28 0 c27 0 161 15 229 26 17 3 32 11 32 18 0 33 33 118 57 147 35 42 96 69 156 69 l47 0 0 -37 c0 -54 30 -95 98 -137 l60 -36 -4 -78 -5 -77 52 108 c29 59 55 107 59 107 3 0 16 -13 28 -29 l21 -29 -34 -169 c-20 -92 -47 -195 -61 -227 -26 -58 -26 -60 -10 -91 11 -19 37 -42 69 -59 41 -21 45 -25 22 -21 -16 3 -56 15 -87 26 -51 19 -59 25 -68 58 -19 65 -49 234 -61 338 l-11 101 -41 11 c-23 5 -42 9 -44 7 -1 -1 8 -18 22 -37 29 -41 49 -189 24 -173 -8 5 -57 37 -109 72 -102 67 -270 140 -270 118 0 -13 64 -142 103 -208 94 -159 284 -376 500 -571 73 -65 79 -69 102 -57 40 21 294 269 389 380 108 126 188 247 247 375 31 67 48 93 59 90 36 -9 170 -17 170 -9 0 5 -25 70 -56 145 l-56 137 -37 6 c-21 3 -47 17 -60 30 l-23 25 33 5 c19 3 51 7 72 8 l38 3 -85 70 c-51 42 -83 76 -81 85 2 8 7 40 10 70 l7 55 -36 -34 c-43 -42 -44 -37 -10 40 l27 59 -33 178 c-18 97 -36 182 -39 188 -4 7 -82 -43 -199 -127 l-192 -139 -45 11 c-44 11 -218 8 -260 -5 -15 -5 -68 28 -213 134 -114 83 -194 135 -197 127z m131 -214 c37 -60 74 -118 82 -130 14 -22 13 -23 -20 -23 -30 0 -37 6 -67 57 -27 45 -78 203 -66 203 2 0 34 -48 71 -107z m903 30 c-7 -32 -28 -86 -48 -120 -33 -57 -39 -63 -70 -63 -32 0 -33 1 -19 23 8 12 43 68 78 125 35 56 65 100 68 98 2 -3 -2 -31 -9 -63z m-776 -497 c48 -20 140 -139 165 -213 11 -35 19 -63 17 -63 -2 0 -19 22 -39 49 -29 39 -64 65 -187 137 l-151 89 38 6 c69 11 124 9 157 -5z m746 6 l43 -7 -151 -89 c-124 -73 -158 -98 -187 -138 -20 -27 -38 -47 -40 -45 -13 13 43 129 92 189 76 95 116 109 243 90z m31 -164 c53 -27 86 -72 107 -150 16 -55 18 -58 57 -66 l41 -8 -55 -18 c-76 -26 -142 -60 -230 -120 -41 -28 -81 -55 -88 -60 -24 -14 -5 151 21 188 19 26 19 29 3 23 -10 -4 -29 -10 -42 -13 -13 -3 -24 -8 -24 -11 0 -81 -65 -451 -82 -469 -4 -4 -108 -44 -115 -44 -3 0 11 18 31 40 40 45 40 45 25 89 -12 33 -20 37 -47 20 -12 -7 -31 -5 -72 9 l-55 19 62 13 c35 7 68 19 74 26 8 10 2 56 -24 180 l-35 166 23 35 24 34 56 -108 56 -108 -4 73 c-4 70 -3 74 22 89 105 64 131 95 131 157 l0 36 48 0 c30 0 65 -9 92 -22z m-720 -28 c6 -11 21 -20 34 -20 13 0 26 -7 30 -15 4 -11 -2 -15 -24 -15 -32 0 -70 30 -70 55 0 21 17 19 30 -5z m505 -2 c-9 -31 -33 -48 -68 -48 -35 0 -32 23 4 28 13 2 29 13 37 23 18 26 35 24 27 -3z m-146 -745 c-22 -26 -110 -93 -123 -93 -13 0 -119 90 -113 97 3 2 29 -8 60 -23 l54 -27 64 31 c77 37 75 36 58 15z" />
  </g>
</svg>
